<mxfile host="localhost" modified="2020-05-21T07:44:57.469Z" agent="5.0 (Windows NT 10.0; Win64; x64) AppleWebKit/537.36 (KHTML, like Gecko) Code/1.45.1 Chrome/78.0.3904.130 Electron/7.2.4 Safari/537.36" etag="vPSL6UE_AT6cHqAQ5Ovh" version="13.0.9">
    <diagram id="ZkMxteDi5OPQlUkR_xyT" name="Page-1">
        <mxGraphModel dx="2124" dy="596" grid="1" gridSize="10" guides="1" tooltips="1" connect="1" arrows="1" fold="1" page="1" pageScale="1" pageWidth="850" pageHeight="1100" math="0" shadow="0">
            <root>
                <mxCell id="0"/>
                <mxCell id="1" parent="0"/>
                <mxCell id="dNJ8jBkAtm3u87ofcfEc-1" value="" style="shape=link;html=1;" parent="1" edge="1">
                    <mxGeometry width="50" height="50" relative="1" as="geometry">
                        <mxPoint x="600" y="400" as="sourcePoint"/>
                        <mxPoint x="600" y="120" as="targetPoint"/>
                    </mxGeometry>
                </mxCell>
                <mxCell id="dNJ8jBkAtm3u87ofcfEc-2" value="" style="shape=link;html=1;" parent="1" edge="1">
                    <mxGeometry width="50" height="50" relative="1" as="geometry">
                        <mxPoint x="400" y="400" as="sourcePoint"/>
                        <mxPoint x="400" y="120" as="targetPoint"/>
                    </mxGeometry>
                </mxCell>
                <mxCell id="dNJ8jBkAtm3u87ofcfEc-3" value="" style="endArrow=none;html=1;" parent="1" edge="1">
                    <mxGeometry width="50" height="50" relative="1" as="geometry">
                        <mxPoint x="400" y="320" as="sourcePoint"/>
                        <mxPoint x="600" y="320" as="targetPoint"/>
                    </mxGeometry>
                </mxCell>
                <mxCell id="dNJ8jBkAtm3u87ofcfEc-4" value="" style="endArrow=none;html=1;" parent="1" edge="1">
                    <mxGeometry width="50" height="50" relative="1" as="geometry">
                        <mxPoint x="400" y="360" as="sourcePoint"/>
                        <mxPoint x="600" y="360" as="targetPoint"/>
                    </mxGeometry>
                </mxCell>
                <mxCell id="dNJ8jBkAtm3u87ofcfEc-5" value="" style="endArrow=none;html=1;" parent="1" edge="1">
                    <mxGeometry width="50" height="50" relative="1" as="geometry">
                        <mxPoint x="400" y="160" as="sourcePoint"/>
                        <mxPoint x="600" y="160" as="targetPoint"/>
                    </mxGeometry>
                </mxCell>
                <mxCell id="dNJ8jBkAtm3u87ofcfEc-6" value="" style="endArrow=none;html=1;" parent="1" edge="1">
                    <mxGeometry width="50" height="50" relative="1" as="geometry">
                        <mxPoint x="400" y="200" as="sourcePoint"/>
                        <mxPoint x="600" y="200" as="targetPoint"/>
                    </mxGeometry>
                </mxCell>
                <mxCell id="dNJ8jBkAtm3u87ofcfEc-7" value="" style="endArrow=none;html=1;" parent="1" edge="1">
                    <mxGeometry width="50" height="50" relative="1" as="geometry">
                        <mxPoint x="400" y="240" as="sourcePoint"/>
                        <mxPoint x="600" y="240" as="targetPoint"/>
                    </mxGeometry>
                </mxCell>
                <mxCell id="dNJ8jBkAtm3u87ofcfEc-8" value="" style="endArrow=none;html=1;" parent="1" edge="1">
                    <mxGeometry width="50" height="50" relative="1" as="geometry">
                        <mxPoint x="400" y="280" as="sourcePoint"/>
                        <mxPoint x="600" y="280" as="targetPoint"/>
                    </mxGeometry>
                </mxCell>
                <mxCell id="dNJ8jBkAtm3u87ofcfEc-9" value="&lt;b&gt;&lt;font style=&quot;font-size: 24px&quot;&gt;Memory&lt;/font&gt;&lt;/b&gt;" style="text;html=1;resizable=0;autosize=1;align=center;verticalAlign=middle;points=[];fillColor=none;strokeColor=none;rounded=0;" parent="1" vertex="1">
                    <mxGeometry x="440" y="100" width="110" height="20" as="geometry"/>
                </mxCell>
                <mxCell id="dNJ8jBkAtm3u87ofcfEc-14" value="1005" style="text;html=1;resizable=0;autosize=1;align=center;verticalAlign=middle;points=[];fillColor=none;strokeColor=none;rounded=0;" parent="1" vertex="1">
                    <mxGeometry x="620" y="330" width="40" height="20" as="geometry"/>
                </mxCell>
                <mxCell id="dNJ8jBkAtm3u87ofcfEc-15" value="1004" style="text;html=1;resizable=0;autosize=1;align=center;verticalAlign=middle;points=[];fillColor=none;strokeColor=none;rounded=0;" parent="1" vertex="1">
                    <mxGeometry x="620" y="290" width="40" height="20" as="geometry"/>
                </mxCell>
                <mxCell id="dNJ8jBkAtm3u87ofcfEc-16" value="1003" style="text;html=1;resizable=0;autosize=1;align=center;verticalAlign=middle;points=[];fillColor=none;strokeColor=none;rounded=0;" parent="1" vertex="1">
                    <mxGeometry x="620" y="250" width="40" height="20" as="geometry"/>
                </mxCell>
                <mxCell id="dNJ8jBkAtm3u87ofcfEc-17" value="1002" style="text;html=1;resizable=0;autosize=1;align=center;verticalAlign=middle;points=[];fillColor=none;strokeColor=none;rounded=0;" parent="1" vertex="1">
                    <mxGeometry x="620" y="210" width="40" height="20" as="geometry"/>
                </mxCell>
                <mxCell id="dNJ8jBkAtm3u87ofcfEc-18" value="1001&lt;br&gt;" style="text;html=1;resizable=0;autosize=1;align=center;verticalAlign=middle;points=[];fillColor=none;strokeColor=none;rounded=0;" parent="1" vertex="1">
                    <mxGeometry x="620" y="170" width="40" height="20" as="geometry"/>
                </mxCell>
                <mxCell id="dNJ8jBkAtm3u87ofcfEc-19" value="" style="ellipse;whiteSpace=wrap;html=1;aspect=fixed;fillColor=#000000;" parent="1" vertex="1">
                    <mxGeometry x="490" y="370" width="10" height="10" as="geometry"/>
                </mxCell>
                <mxCell id="dNJ8jBkAtm3u87ofcfEc-20" value="" style="ellipse;whiteSpace=wrap;html=1;aspect=fixed;fillColor=#000000;" parent="1" vertex="1">
                    <mxGeometry x="490" y="390" width="10" height="10" as="geometry"/>
                </mxCell>
                <mxCell id="dNJ8jBkAtm3u87ofcfEc-21" value="" style="ellipse;whiteSpace=wrap;html=1;aspect=fixed;fillColor=#000000;" parent="1" vertex="1">
                    <mxGeometry x="490" y="410" width="10" height="10" as="geometry"/>
                </mxCell>
                <mxCell id="dNJ8jBkAtm3u87ofcfEc-49" value="" style="edgeStyle=orthogonalEdgeStyle;curved=1;orthogonalLoop=1;jettySize=auto;html=1;strokeColor=#000000;" parent="1" source="dNJ8jBkAtm3u87ofcfEc-31" target="dNJ8jBkAtm3u87ofcfEc-44" edge="1">
                    <mxGeometry relative="1" as="geometry"/>
                </mxCell>
                <mxCell id="dNJ8jBkAtm3u87ofcfEc-31" value="&lt;b style=&quot;color: rgb(0 , 0 , 153)&quot;&gt;&lt;font style=&quot;font-size: 21px&quot;&gt;var a = new Person() { Name = Shahryar, Id=487 };&lt;/font&gt;&lt;/b&gt;" style="text;html=1;resizable=0;autosize=1;align=center;verticalAlign=middle;points=[];fillColor=none;strokeColor=none;rounded=0;" parent="1" vertex="1">
                    <mxGeometry x="-460" y="115" width="510" height="20" as="geometry"/>
                </mxCell>
                <mxCell id="dNJ8jBkAtm3u87ofcfEc-32" value="&lt;font style=&quot;font-size: 16px&quot;&gt;object&amp;lt;shahryar, 487&amp;gt;&lt;/font&gt;" style="text;html=1;resizable=0;autosize=1;align=center;verticalAlign=middle;points=[];fillColor=none;strokeColor=none;rounded=0;" parent="1" vertex="1">
                    <mxGeometry x="410" y="210" width="170" height="20" as="geometry"/>
                </mxCell>
                <mxCell id="dNJ8jBkAtm3u87ofcfEc-35" value="" style="shape=link;html=1;" parent="1" edge="1">
                    <mxGeometry width="50" height="50" relative="1" as="geometry">
                        <mxPoint x="400" y="865" as="sourcePoint"/>
                        <mxPoint x="400" y="505" as="targetPoint"/>
                    </mxGeometry>
                </mxCell>
                <mxCell id="dNJ8jBkAtm3u87ofcfEc-36" value="" style="shape=link;html=1;" parent="1" edge="1">
                    <mxGeometry width="50" height="50" relative="1" as="geometry">
                        <mxPoint x="600" y="865" as="sourcePoint"/>
                        <mxPoint x="600" y="505" as="targetPoint"/>
                    </mxGeometry>
                </mxCell>
                <mxCell id="dNJ8jBkAtm3u87ofcfEc-40" value="" style="shape=link;html=1;" parent="1" edge="1">
                    <mxGeometry width="50" height="50" relative="1" as="geometry">
                        <mxPoint x="400" y="865" as="sourcePoint"/>
                        <mxPoint x="600" y="865" as="targetPoint"/>
                    </mxGeometry>
                </mxCell>
                <mxCell id="dNJ8jBkAtm3u87ofcfEc-41" value="&lt;font size=&quot;1&quot;&gt;&lt;b style=&quot;font-size: 25px&quot;&gt;Stack&lt;/b&gt;&lt;/font&gt;" style="text;html=1;resizable=0;autosize=1;align=center;verticalAlign=middle;points=[];fillColor=none;strokeColor=none;rounded=0;" parent="1" vertex="1">
                    <mxGeometry x="455" y="480" width="80" height="30" as="geometry"/>
                </mxCell>
                <mxCell id="dNJ8jBkAtm3u87ofcfEc-42" value="method: main" style="rounded=1;whiteSpace=wrap;html=1;fillColor=#f5f5f5;strokeColor=#666666;fontColor=#333333;" parent="1" vertex="1">
                    <mxGeometry x="410" y="715" width="170" height="130" as="geometry"/>
                </mxCell>
                <mxCell id="dNJ8jBkAtm3u87ofcfEc-43" value="method: current method&lt;br&gt;a = ADDR(1002)&lt;br&gt;b = ADDR(1002)&lt;br&gt;c = 3;" style="rounded=1;whiteSpace=wrap;html=1;fillColor=#f5f5f5;strokeColor=#666666;fontColor=#333333;" parent="1" vertex="1">
                    <mxGeometry x="410" y="555" width="170" height="130" as="geometry"/>
                </mxCell>
                <mxCell id="dNJ8jBkAtm3u87ofcfEc-44" value="&lt;font color=&quot;#00994d&quot; style=&quot;font-size: 30px&quot;&gt;a&lt;/font&gt;" style="text;html=1;resizable=0;autosize=1;align=center;verticalAlign=middle;points=[];fillColor=none;strokeColor=none;rounded=0;" parent="1" vertex="1">
                    <mxGeometry x="130" y="110" width="30" height="30" as="geometry"/>
                </mxCell>
                <mxCell id="dNJ8jBkAtm3u87ofcfEc-45" value="" style="endArrow=classic;html=1;exitX=1.133;exitY=0.967;exitDx=0;exitDy=0;exitPerimeter=0;strokeColor=#82b366;curved=1;fillColor=#d5e8d4;" parent="1" source="dNJ8jBkAtm3u87ofcfEc-44" edge="1">
                    <mxGeometry width="50" height="50" relative="1" as="geometry">
                        <mxPoint x="210" y="240" as="sourcePoint"/>
                        <mxPoint x="390" y="220" as="targetPoint"/>
                        <Array as="points">
                            <mxPoint x="220" y="190"/>
                            <mxPoint x="300" y="210"/>
                        </Array>
                    </mxGeometry>
                </mxCell>
                <mxCell id="dNJ8jBkAtm3u87ofcfEc-54" style="edgeStyle=orthogonalEdgeStyle;curved=1;orthogonalLoop=1;jettySize=auto;html=1;strokeColor=#000000;" parent="1" source="dNJ8jBkAtm3u87ofcfEc-50" edge="1">
                    <mxGeometry relative="1" as="geometry">
                        <mxPoint x="110" y="240" as="targetPoint"/>
                    </mxGeometry>
                </mxCell>
                <mxCell id="dNJ8jBkAtm3u87ofcfEc-50" value="&lt;font color=&quot;#000099&quot; size=&quot;1&quot;&gt;&lt;b style=&quot;font-size: 21px&quot;&gt;var b = a;&lt;/b&gt;&lt;/font&gt;" style="text;html=1;resizable=0;autosize=1;align=center;verticalAlign=middle;points=[];fillColor=none;strokeColor=none;rounded=0;" parent="1" vertex="1">
                    <mxGeometry x="-450" y="230" width="110" height="20" as="geometry"/>
                </mxCell>
                <mxCell id="dNJ8jBkAtm3u87ofcfEc-53" value="" style="edgeStyle=orthogonalEdgeStyle;curved=1;orthogonalLoop=1;jettySize=auto;html=1;strokeColor=#82b366;exitX=1.033;exitY=0.467;exitDx=0;exitDy=0;exitPerimeter=0;fillColor=#d5e8d4;" parent="1" source="dNJ8jBkAtm3u87ofcfEc-51" edge="1">
                    <mxGeometry relative="1" as="geometry">
                        <mxPoint x="390" y="235" as="targetPoint"/>
                        <Array as="points">
                            <mxPoint x="151" y="220"/>
                            <mxPoint x="265" y="220"/>
                            <mxPoint x="265" y="250"/>
                            <mxPoint x="370" y="250"/>
                            <mxPoint x="370" y="235"/>
                        </Array>
                    </mxGeometry>
                </mxCell>
                <mxCell id="dNJ8jBkAtm3u87ofcfEc-51" value="&lt;font color=&quot;#00994d&quot;&gt;&lt;span style=&quot;font-size: 30px&quot;&gt;b&lt;/span&gt;&lt;/font&gt;" style="text;html=1;resizable=0;autosize=1;align=center;verticalAlign=middle;points=[];fillColor=none;strokeColor=none;rounded=0;" parent="1" vertex="1">
                    <mxGeometry x="120" y="220" width="30" height="30" as="geometry"/>
                </mxCell>
                <mxCell id="2" value="&lt;font style=&quot;font-size: 18px&quot;&gt;var c = 3;&lt;/font&gt;" style="text;html=1;resizable=0;autosize=1;align=center;verticalAlign=middle;points=[];fillColor=none;strokeColor=none;rounded=0;" vertex="1" parent="1">
                    <mxGeometry x="-450" y="310" width="90" height="20" as="geometry"/>
                </mxCell>
            </root>
        </mxGraphModel>
    </diagram>
</mxfile>